/* XPM */
static char *_06bbc3b17a741d2d7ba2a50484014ebjz16Oorsd1k18hBf[] = {
/* columns rows colors chars-per-pixel */
"32 32 4 1 ",
"  c #22B14C",
". c #A8E61D",
"X c #FFF200",
"o c #FFA3B1",
/* pixels */
"                                ",
"                       ..       ",
"           oooo                 ",
"           ooooooo              ",
"            ooooooo   ..        ",
"          ooooXXXXoo            ",
"          ooooXXXooo            ",
"           oooooooo             ",
"            oooooo              ",
".                          .....",
"             ..       .. .      ",
"                      ....  .   ",
"         .                      ",
"        .                       ",
"                                ",
"                o               ",
"                 ooooo          ",
"                 oooooo         ",
"               ooooXXoo         ",
"              ooooXXXo          ",
"              ooooXXoo          ",
"              oooooooo          ",
"     ...       ooooooo          ",
"  .... ..         oooo          ",
"   ..              ooo          ",
"                                ",
"                                ",
"                 .       .....  ",
"                 ..             ",
"                    ..          ",
"                     ..         ",
"                     ..         "
};
